<svg width="32" height="32" viewBox="0 0 32 32" fill="none" xmlns="http://www.w3.org/2000/svg">
<path d="M16 15.9999C14.5333 15.9999 13.2778 15.4777 12.2333 14.4333C11.1889 13.3888 10.6667 12.1333 10.6667 10.6666C10.6667 9.19992 11.1889 7.94436 12.2333 6.89992C13.2778 5.85547 14.5333 5.33325 16 5.33325C17.4667 5.33325 18.7222 5.85547 19.7667 6.89992C20.8111 7.94436 21.3333 9.19992 21.3333 10.6666C21.3333 12.1333 20.8111 13.3888 19.7667 14.4333C18.7222 15.4777 17.4667 15.9999 16 15.9999ZM5.33334 26.6666V22.9333C5.33334 22.1777 5.528 21.4835 5.91734 20.8506C6.30667 20.2177 6.82311 19.7341 7.46667 19.3999C8.84445 18.711 10.2444 18.1946 11.6667 17.8506C13.0889 17.5066 14.5333 17.3341 16 17.3333C17.4667 17.3333 18.9111 17.5057 20.3333 17.8506C21.7556 18.1955 23.1556 18.7119 24.5333 19.3999C25.1778 19.7333 25.6947 20.2168 26.084 20.8506C26.4733 21.4844 26.6676 22.1786 26.6667 22.9333V26.6666H5.33334Z" fill="#132043"/>
</svg>
