<svg width="32" height="32" viewBox="0 0 32 32" fill="none" xmlns="http://www.w3.org/2000/svg">
<path d="M16 22.6666C16.7072 22.6666 17.3855 22.3856 17.8856 21.8855C18.3857 21.3854 18.6667 20.7072 18.6667 19.9999C18.6667 19.2927 18.3857 18.6144 17.8856 18.1143C17.3855 17.6142 16.7072 17.3333 16 17.3333C15.2928 17.3333 14.6145 17.6142 14.1144 18.1143C13.6143 18.6144 13.3333 19.2927 13.3333 19.9999C13.3333 20.7072 13.6143 21.3854 14.1144 21.8855C14.6145 22.3856 15.2928 22.6666 16 22.6666ZM24 10.6666C24.7072 10.6666 25.3855 10.9475 25.8856 11.4476C26.3857 11.9477 26.6667 12.626 26.6667 13.3333V26.6666C26.6667 27.3738 26.3857 28.0521 25.8856 28.5522C25.3855 29.0523 24.7072 29.3333 24 29.3333H8C7.29276 29.3333 6.61448 29.0523 6.11438 28.5522C5.61429 28.0521 5.33334 27.3738 5.33334 26.6666V13.3333C5.33334 12.626 5.61429 11.9477 6.11438 11.4476C6.61448 10.9475 7.29276 10.6666 8 10.6666H9.33334V7.99992C9.33334 6.23181 10.0357 4.53612 11.286 3.28587C12.5362 2.03563 14.2319 1.33325 16 1.33325C16.8755 1.33325 17.7424 1.50569 18.5512 1.84072C19.3601 2.17575 20.095 2.66682 20.714 3.28587C21.3331 3.90493 21.8242 4.63986 22.1592 5.4487C22.4942 6.25753 22.6667 7.12444 22.6667 7.99992V10.6666H24ZM16 3.99992C14.9391 3.99992 13.9217 4.42135 13.1716 5.17149C12.4214 5.92164 12 6.93905 12 7.99992V10.6666H20V7.99992C20 6.93905 19.5786 5.92164 18.8284 5.17149C18.0783 4.42135 17.0609 3.99992 16 3.99992Z" fill="#132043"/>
</svg>
