<svg width="89" height="89" viewBox="0 0 89 89" fill="none" xmlns="http://www.w3.org/2000/svg">
<circle cx="44.5" cy="44.5" r="44.5" fill="#F1B4BB"/>
<path d="M44.5993 43.8047C47.4787 43.8047 50.2933 42.9509 52.6874 41.3512C55.0814 39.7515 56.9474 37.4779 58.0493 34.8177C59.1511 32.1576 59.4394 29.2304 58.8777 26.4064C58.316 23.5824 56.9295 20.9884 54.8935 18.9525C52.8575 16.9165 50.2635 15.5299 47.4395 14.9682C44.6155 14.4065 41.6883 14.6948 39.0282 15.7967C36.368 16.8985 34.0944 18.7645 32.4947 21.1585C30.895 23.5526 30.0412 26.3673 30.0412 29.2466C30.0412 33.1076 31.575 36.8106 34.3052 39.5407C37.0354 42.2709 40.7383 43.8047 44.5993 43.8047ZM44.5993 18.8479C46.656 18.8479 48.6665 19.4578 50.3765 20.6004C52.0866 21.743 53.4194 23.3671 54.2064 25.2672C54.9935 27.1673 55.1994 29.2581 54.7982 31.2753C54.3969 33.2924 53.4066 35.1453 51.9523 36.5995C50.498 38.0538 48.6451 39.0442 46.628 39.4454C44.6109 39.8467 42.52 39.6407 40.6199 38.8537C38.7198 38.0666 37.0958 36.7338 35.9532 35.0238C34.8106 33.3137 34.2007 31.3032 34.2007 29.2466C34.2007 26.4887 35.2962 23.8438 37.2464 21.8936C39.1965 19.9435 41.8414 18.8479 44.5993 18.8479Z" fill="#FDF0F0"/>
<path d="M46.6791 47.9641H42.5196C36.4522 47.9641 30.6334 50.3744 26.3431 54.6646C22.0528 58.9549 19.6426 64.7738 19.6426 70.8411C19.6426 71.3927 19.8617 71.9217 20.2517 72.3117C20.6417 72.7018 21.1707 72.9209 21.7223 72.9209H67.4764C68.0279 72.9209 68.5569 72.7018 68.9469 72.3117C69.337 71.9217 69.5561 71.3927 69.5561 70.8411C69.5561 64.7738 67.1458 58.9549 62.8556 54.6646C58.5653 50.3744 52.7464 47.9641 46.6791 47.9641ZM23.9268 68.7614C24.4382 64.1873 26.617 59.962 30.0468 56.8928C33.4766 53.8237 37.917 52.1258 42.5196 52.1236H46.6791C51.2816 52.1258 55.722 53.8237 59.1519 56.8928C62.5817 59.962 64.7604 64.1873 65.2718 68.7614H23.9268Z" fill="#FDF0F0"/>
</svg>
